<svg width="16" height="16" viewBox="0 0 16 16" fill="none" xmlns="http://www.w3.org/2000/svg">
<mask id="mask0_1_275" style="mask-type:alpha" maskUnits="userSpaceOnUse" x="0" y="0" width="16" height="16">
<path d="M10.1609 15.5V10.0516H12.0085L12.2844 7.98009H10.1609V6.63855C10.1609 6.02696 10.3269 5.61266 11.2144 5.61266H12.375V3.70391C12.179 3.67925 11.4934 3.625 10.7122 3.625C9.08059 3.625 7.97799 4.61636 7.97799 6.4166V7.98009H6.125V10.0516H7.97755L7.97394 15.5H1.75C1.06641 15.5 0.5 14.9336 0.5 14.25V1.75C0.5 1.06641 1.06641 0.5 1.75 0.5H14.25C14.9336 0.5 15.5 1.06641 15.5 1.75V14.25C15.5 14.9336 14.9336 15.5 14.25 15.5H10.1609Z" fill="white"/>
</mask>
<g mask="url(#mask0_1_275)">
<path d="M10.1609 15.5V10.0516H12.0085L12.2844 7.98009H10.1609V6.63855C10.1609 6.02696 10.3269 5.61266 11.2144 5.61266H12.375V3.70391C12.179 3.67925 11.4934 3.625 10.7122 3.625C9.08059 3.625 7.97799 4.61636 7.97799 6.4166V7.98009H6.125V10.0516H7.97755L7.97394 15.5H1.75C1.06641 15.5 0.5 14.9336 0.5 14.25V1.75C0.5 1.06641 1.06641 0.5 1.75 0.5H14.25C14.9336 0.5 15.5 1.06641 15.5 1.75V14.25C15.5 14.9336 14.9336 15.5 14.25 15.5H10.1609Z" fill="white"/>
</g>
</svg>
