<svg width="16" height="16" viewBox="0 0 16 16" xmlns="http://www.w3.org/2000/svg">
<path fill-rule="evenodd" clip-rule="evenodd" d="M0.5 4.82856C0.5 2.43796 2.43794 0.5 4.82856 0.5H11.1714C13.562 0.5 15.5 2.43794 15.5 4.82856V11.1714C15.5 13.562 13.5621 15.5 11.1714 15.5H4.82856C2.43796 15.5 0.5 13.5621 0.5 11.1714V4.82856ZM1.85776 4.95765V11.0423C1.85776 12.7569 3.24563 14.1422 4.95765 14.1422H11.0423C12.7569 14.1422 14.1422 12.7544 14.1422 11.0423V4.95765C14.1422 3.24307 12.7544 1.85776 11.0423 1.85776H4.95765C3.24307 1.85776 1.85776 3.24563 1.85776 4.95765ZM8 11.8147C5.89322 11.8147 4.18535 10.1068 4.18535 8C4.18535 5.89322 5.89322 4.18535 8 4.18535C10.1068 4.18535 11.8147 5.89322 11.8147 8C11.8147 10.1068 10.1068 11.8147 8 11.8147ZM8 10.4569C9.35691 10.4569 10.4569 9.35691 10.4569 8C10.4569 6.64309 9.35691 5.5431 8 5.5431C6.64309 5.5431 5.5431 6.64309 5.5431 8C5.5431 9.35691 6.64309 10.4569 8 10.4569ZM11.944 4.89655C11.4441 4.89655 11.0388 4.49129 11.0388 3.99138C11.0388 3.49147 11.4441 3.08621 11.944 3.08621C12.4439 3.08621 12.8491 3.49147 12.8491 3.99138C12.8491 4.49129 12.4439 4.89655 11.944 4.89655Z" fill="white"/>
</svg>