<svg width="18" height="14" viewBox="0 0 18 14" fill="none" xmlns="http://www.w3.org/2000/svg">
<mask id="mask0_1_294" style="mask-type:alpha" maskUnits="userSpaceOnUse" x="0" y="0" width="18" height="14">
<path d="M9 0.75C11.3538 0.75 13.4338 0.994375 14.7031 1.18C15.7531 1.33375 16.6 2.12437 16.7931 3.17188C16.9587 4.06562 17.125 5.37187 17.125 7C17.125 8.62813 16.9562 9.93437 16.7931 10.8281C16.6 11.8756 15.7531 12.6687 14.7031 12.82C13.4288 13.0056 11.3413 13.25 9 13.25C6.65875 13.25 4.57125 13.0056 3.29688 12.82C2.24688 12.6687 1.4 11.8756 1.20687 10.8281C1.04375 9.93688 0.875 8.63312 0.875 7C0.875 5.36688 1.04375 4.06312 1.20687 3.17188C1.4 2.12437 2.24688 1.33375 3.29688 1.18C4.56625 0.994375 6.64625 0.75 9 0.75ZM7.125 3.42563V10.5744L8.0625 10.0469L12.4375 7.54688L13.375 7L12.4375 6.45312L8.0625 3.95312L7.125 3.42563Z" fill="white"/>
</mask>
<g mask="url(#mask0_1_294)">
<path d="M9 0.75C11.3538 0.75 13.4338 0.994375 14.7031 1.18C15.7531 1.33375 16.6 2.12437 16.7931 3.17188C16.9587 4.06562 17.125 5.37187 17.125 7C17.125 8.62813 16.9562 9.93437 16.7931 10.8281C16.6 11.8756 15.7531 12.6687 14.7031 12.82C13.4288 13.0056 11.3413 13.25 9 13.25C6.65875 13.25 4.57125 13.0056 3.29688 12.82C2.24688 12.6687 1.4 11.8756 1.20687 10.8281C1.04375 9.93688 0.875 8.63312 0.875 7C0.875 5.36688 1.04375 4.06312 1.20687 3.17188C1.4 2.12437 2.24688 1.33375 3.29688 1.18C4.56625 0.994375 6.64625 0.75 9 0.75ZM7.125 3.42563V10.5744L8.0625 10.0469L12.4375 7.54688L13.375 7L12.4375 6.45312L8.0625 3.95312L7.125 3.42563Z" fill="white"/>
</g>
</svg>
