<?xml version="1.0" ?><svg id="Layer_1" style="enable-background:new 0 0 100 100;" version="1.1" viewBox="0 0 100 100" xml:space="preserve" xmlns="http://www.w3.org/2000/svg" xmlns:xlink="http://www.w3.org/1999/xlink"><g><path d="M33.1,90.5c-1.1,0-2.2-0.4-3-1.3l-3.7-3.8c-1.6-1.7-1.6-4.3,0.1-6l30.4-29.6l-30-30c-1.6-1.6-1.6-4.3,0-6l3.7-3.7   c1.7-1.6,4.3-1.6,6,0L73.3,47c0.3,0.3,0.5,0.6,0.7,1c0,0.1,0.1,0.2,0.1,0.2l0,0.1c0.1,0.3,0.2,0.5,0.2,0.7c0.1,0.6,0.1,1.2,0,1.6   c0,0.1,0,0.2-0.1,0.3c-0.2,0.7-0.6,1.4-1.1,1.9L36,89.3C35.2,90.1,34.1,90.5,33.1,90.5z M33.5,11c-0.6,0-1.1,0.2-1.6,0.6l-3.7,3.7   c-0.9,0.9-0.9,2.3,0,3.1l31.4,31.4l-31.8,31c-0.9,0.8-0.9,2.3,0,3.1l3.7,3.8c0.8,0.9,2.3,0.9,3.1,0l37.2-36.3   c0.3-0.3,0.5-0.6,0.6-1c0-0.1,0-0.1,0-0.1l0-0.1c0.1-0.2,0-0.5,0-0.8c0-0.1-0.1-0.2-0.1-0.4L72.2,49c-0.1-0.2-0.2-0.4-0.4-0.5   l-1-1.1L35.1,11.7C34.7,11.2,34.1,11,33.5,11z"/></g></svg>